<svg xmlns="http://www.w3.org/2000/svg" width="1024" height="1024" viewBox="0 0 1024 1024">
<g>
<path d="M 0.00 0.00 L 1024.00 0.00 L 1024.00 1024.00 L 0.00 1024.00 ZM 332.43 685.98 C336.32,686.30 364.48,686.49 395.00,686.39 C441.02,686.26 451.70,685.96 457.52,684.68 C509.89,673.10 549.00,625.83 549.00,574.12 L 549.00 563.46 L 487.50 502.50 L 486.99 544.00 C486.49,584.16 486.40,585.71 484.16,592.00 C481.09,600.63 477.18,606.57 470.20,613.22 C463.94,619.19 460.60,621.21 452.18,624.11 C447.17,625.84 443.34,626.00 408.34,626.00 L 370.00 626.00 L 370.00 396.02 L 447.50 395.50 L 447.76 365.71 L 448.03 335.93 L 387.26 336.21 C331.26,336.48 326.19,336.64 322.50,338.30 C317.23,340.67 312.20,345.55 309.90,350.50 C308.12,354.34 308.04,360.65 308.02,509.88 C308.01,623.47 308.31,666.29 309.14,669.08 C311.91,678.31 321.20,685.06 332.43,685.98 ZM 532.00 686.24 C532.00,687.31 612.05,687.14 626.22,686.04 C651.67,684.07 673.90,673.41 691.75,654.63 C703.41,642.35 710.58,630.42 715.29,615.48 C720.01,600.51 720.15,597.20 719.74,505.50 C719.40,430.28 719.15,418.69 717.73,413.00 C709.63,380.62 692.51,359.01 664.62,345.94 C644.45,336.50 637.18,335.78 566.00,336.18 C510.00,336.49 508.38,336.55 503.95,338.61 C497.39,341.64 492.03,346.74 489.35,352.49 C487.03,357.47 487.02,357.71 487.01,397.49 L 487.00 437.49 L 517.24 467.74 C533.88,484.38 547.83,498.00 548.24,498.00 C548.66,498.00 549.00,475.03 549.00,446.95 L 549.00 395.89 L 588.75 396.20 C627.43,396.50 628.65,396.57 634.14,398.79 C641.68,401.83 647.42,406.12 651.30,411.61 C652.43,413.21 653.35,414.39 654.10,415.68 C657.51,421.47 657.53,429.26 657.63,485.63 C657.64,489.07 657.65,492.69 657.65,496.50 C657.74,536.65 657.47,575.88 657.06,583.68 C656.39,596.26 655.99,598.50 653.55,603.49 C649.95,610.84 642.01,618.77 634.50,622.51 C628.58,625.46 628.25,625.50 610.00,625.81 L 591.50 626.11 L 561.75 655.80 C545.39,672.13 532.00,685.83 532.00,686.24 Z" fill="rgb(23,28,34)"/>
<path d="M 332.43 685.98 C321.20,685.06 311.91,678.31 309.14,669.08 C308.31,666.29 308.01,623.47 308.02,509.88 C308.04,360.65 308.12,354.34 309.90,350.50 C312.20,345.55 317.23,340.67 322.50,338.30 C326.19,336.64 331.26,336.48 387.26,336.21 L 448.03 335.93 L 447.76 365.71 L 447.50 395.50 L 408.75 395.76 L 370.00 396.02 L 370.00 511.01 L 370.00 626.00 L 408.34 626.00 C443.34,626.00 447.17,625.84 452.18,624.11 C460.60,621.21 463.94,619.19 470.20,613.22 C477.18,606.57 481.09,600.63 484.16,592.00 C486.40,585.71 486.49,584.16 486.99,544.00 L 487.50 502.50 L 518.25 532.98 L 549.00 563.46 L 549.00 574.12 C549.00,625.83 509.89,673.10 457.52,684.68 C451.70,685.96 441.02,686.26 395.00,686.39 C364.48,686.49 336.32,686.30 332.43,685.98 ZM 532.00 686.24 C532.00,685.83 545.39,672.13 561.75,655.80 L 591.50 626.11 L 610.00 625.81 C628.25,625.50 628.58,625.46 634.50,622.51 C642.01,618.77 649.95,610.84 653.55,603.49 C655.99,598.50 656.39,596.26 657.06,583.68 C657.47,575.88 657.74,536.65 657.65,496.50 C657.48,416.39 657.82,420.84 651.30,411.61 C647.42,406.12 641.68,401.83 634.14,398.79 C628.65,396.57 627.43,396.50 588.75,396.20 L 549.00 395.89 L 549.00 446.95 C549.00,475.03 548.66,498.00 548.24,498.00 C547.83,498.00 533.88,484.38 517.24,467.74 L 487.00 437.49 L 487.01 397.49 C487.02,357.71 487.03,357.47 489.35,352.49 C492.03,346.74 497.39,341.64 503.95,338.61 C508.38,336.55 510.00,336.49 566.00,336.18 C637.18,335.78 644.45,336.50 664.62,345.94 C692.51,359.01 709.63,380.62 717.73,413.00 C719.15,418.69 719.40,430.28 719.74,505.50 C720.15,597.20 720.01,600.51 715.29,615.48 C710.58,630.42 703.41,642.35 691.75,654.63 C673.90,673.41 651.67,684.07 626.22,686.04 C612.05,687.14 532.00,687.31 532.00,686.24 Z" fill="rgb(254,254,254)"/>
</g>
</svg>